<svg height="512" viewBox="0 0 64 64" width="512" xmlns="http://www.w3.org/2000/svg"><g id="Free_delivery" data-name="Free delivery"><path d="m21 50h40v4h-40z" fill="#9bc9ff"/><path d="m13 51a5 5 0 1 0 5 5 5 5 0 0 0 -5-5zm0 6a1 1 0 1 1 1-1 1 1 0 0 1 -1 1z" fill="#9bc9ff"/><path d="m47 61a5 5 0 1 0 -5-5 5 5 0 0 0 5 5zm0-6a1 1 0 1 1 -1 1 1 1 0 0 1 1-1z" fill="#9bc9ff"/><circle cx="13" cy="56" fill="#9bc9ff" r="1"/><circle cx="47" cy="56" fill="#9bc9ff" r="1"/><path d="m17 34v11h-12v9h16v-20z" fill="#9bc9ff"/><g fill="#1e81ce"><circle cx="13" cy="56" r="2"/><circle cx="47" cy="56" r="2"/><path d="m61 25h-40a1 1 0 0 0 -1 1v7h-10a1 1 0 0 0 -.91.586l-5 11v.012a1 1 0 0 0 -.09.402v8h-1a1 1 0 0 0 -1 1v2a3 3 0 0 0 3 3h2.812a5.986 5.986 0 0 0 10.376 0h23.624a5.986 5.986 0 0 0 10.376 0h4.812a3 3 0 0 0 3-3v-1h1a1 1 0 0 0 1-1v-28a1 1 0 0 0 -1-1zm-39 2h38v22h-38zm19.812 26h-19.812v-2h21.69a6.041 6.041 0 0 0 -1.878 2zm-31.168-18h5.356v9h-9.447zm-4.644 11h11a1 1 0 0 0 1-1v-10h2v18h-1.812a5.986 5.986 0 0 0 -10.376 0h-1.812zm-1 11a1 1 0 0 1 -1-1v-1h3.09a5.6 5.6 0 0 0 0 2zm8 3a4 4 0 1 1 4-4 4 4 0 0 1 -4 4zm5.91-3a5.6 5.6 0 0 0 0-2h22.18a5.6 5.6 0 0 0 0 2zm28.09 3a4 4 0 1 1 4-4 4 4 0 0 1 -4 4zm11-4a1 1 0 0 1 -1 1h-4.09a5.6 5.6 0 0 0 0-2h5.09zm2-3h-7.812a6.041 6.041 0 0 0 -1.878-2h9.69z"/><path d="m28 43a1 1 0 0 0 1-1v-3h2a1 1 0 0 0 0-2h-2v-2h3a1 1 0 0 0 0-2h-4a1 1 0 0 0 -1 1v8a1 1 0 0 0 1 1z"/><path d="m35 43a1 1 0 0 0 1-1v-2.333l2.2 2.933a1 1 0 1 0 1.6-1.2l-1.912-2.549a2.992 2.992 0 0 0 -.888-5.851h-2a1 1 0 0 0 -1 1v8a1 1 0 0 0 1 1zm3-7a1 1 0 0 1 -1 1h-1v-2h1a1 1 0 0 1 1 1z"/><path d="m43 43h4a1 1 0 0 0 0-2h-3v-2h2a1 1 0 0 0 0-2h-2v-2h3a1 1 0 0 0 0-2h-4a1 1 0 0 0 -1 1v8a1 1 0 0 0 1 1z"/><path d="m50 43h4a1 1 0 0 0 0-2h-3v-2h2a1 1 0 0 0 0-2h-2v-2h3a1 1 0 0 0 0-2h-4a1 1 0 0 0 -1 1v8a1 1 0 0 0 1 1z"/></g></g></svg>